<svg xmlns="http://www.w3.org/2000/svg" width="12.757" height="12.942" viewBox="0 0 12.757 12.942">
  <defs>
    <style>
      .cls-1 {
        fill: #ffcb03;
      }
    </style>
  </defs>
  <g id="Group_1509" data-name="Group 1509" transform="translate(-1804.108 -2303.945)">
    <path id="Path_515" data-name="Path 515" class="cls-1" d="M1824.485,2306.677a.9.9,0,0,0,.9-.9v-.938a.9.9,0,1,0-1.795,0v.938A.9.9,0,0,0,1824.485,2306.677Z" transform="translate(-10.823)"/>
    <path id="Path_516" data-name="Path 516" class="cls-1" d="M1816.852,2307.412h-1.807v.457a1.367,1.367,0,1,1-2.733,0v-.457h-3.646v.457a1.367,1.367,0,1,1-2.733,0v-.457l-1.823-.022V2318.8h11.846l.911,0Zm-.9,10.48H1805.02v-7.29h10.935Z" transform="translate(0 -1.914)"/>
    <path id="Path_517" data-name="Path 517" class="cls-1" d="M1810.133,2306.677a.9.9,0,0,0,.9-.9v-.938a.9.9,0,1,0-1.8,0v.938A.9.9,0,0,0,1810.133,2306.677Z" transform="translate(-2.849)"/>
    <rect id="Rectangle_1642" data-name="Rectangle 1642" class="cls-1" width="1.436" height="1.267" transform="translate(1808.668 2309.666)"/>
    <rect id="Rectangle_1643" data-name="Rectangle 1643" class="cls-1" width="1.437" height="1.267" transform="translate(1810.99 2309.666)"/>
    <rect id="Rectangle_1644" data-name="Rectangle 1644" class="cls-1" width="1.436" height="1.267" transform="translate(1813.143 2309.666)"/>
    <rect id="Rectangle_1645" data-name="Rectangle 1645" class="cls-1" width="1.436" height="1.266" transform="translate(1808.668 2311.771)"/>
    <rect id="Rectangle_1646" data-name="Rectangle 1646" class="cls-1" width="1.437" height="1.266" transform="translate(1810.99 2311.771)"/>
    <rect id="Rectangle_1647" data-name="Rectangle 1647" class="cls-1" width="1.436" height="1.266" transform="translate(1813.143 2311.771)"/>
    <rect id="Rectangle_1648" data-name="Rectangle 1648" class="cls-1" width="1.436" height="1.266" transform="translate(1808.668 2313.918)"/>
    <rect id="Rectangle_1649" data-name="Rectangle 1649" class="cls-1" width="1.435" height="1.266" transform="translate(1806.387 2311.771)"/>
    <rect id="Rectangle_1650" data-name="Rectangle 1650" class="cls-1" width="1.435" height="1.266" transform="translate(1806.387 2313.918)"/>
    <rect id="Rectangle_1651" data-name="Rectangle 1651" class="cls-1" width="1.437" height="1.266" transform="translate(1810.99 2313.918)"/>
    <rect id="Rectangle_1652" data-name="Rectangle 1652" class="cls-1" width="1.436" height="1.266" transform="translate(1813.143 2313.918)"/>
  </g>
</svg>
