<svg xmlns="http://www.w3.org/2000/svg" width="35" height="35" viewBox="0 0 35 35">
  <g id="Group_1537" data-name="Group 1537" transform="translate(-811 -773)">
    <circle id="Ellipse_245" data-name="Ellipse 245" cx="17.5" cy="17.5" r="17.5" transform="translate(811 773)" fill="#f4f4f4"/>
    <path id="Path_762" data-name="Path 762" d="M4343.683-477.558a6.118,6.118,0,0,0-4.355-1.8,6.12,6.12,0,0,0-4.356,1.8,6.164,6.164,0,0,0-.6,8l-4.953,4.953,1.308,1.307,4.947-4.947a6.113,6.113,0,0,0,3.653,1.2,6.118,6.118,0,0,0,4.355-1.8h0A6.166,6.166,0,0,0,4343.683-477.558Zm-1.307,7.4h0a4.283,4.283,0,0,1-3.048,1.262,4.281,4.281,0,0,1-3.048-1.263,4.315,4.315,0,0,1,0-6.1,4.282,4.282,0,0,1,3.048-1.262,4.283,4.283,0,0,1,3.048,1.262A4.316,4.316,0,0,1,4342.376-470.155Z" transform="translate(-3509.42 1262.362)" fill="#3275d3"/>
  </g>
</svg>
