<svg xmlns="http://www.w3.org/2000/svg" width="20" height="20" viewBox="0 0 20 20">
  <g id="Group_1331" data-name="Group 1331" transform="translate(-1257 -520.387)">
    <g id="Group_1289" data-name="Group 1289" transform="translate(1257 520.387)">
      <rect id="Rectangle_1566" data-name="Rectangle 1566" width="20" height="20" rx="10" fill="#fff"/>
    </g>
    <path id="Path_508" data-name="Path 508" d="M883.009,1262.584a.378.378,0,0,1-.533,0l-.118-.118h0l-.129-.127-.551-.551-.009-.013-2.529-2.548a.374.374,0,0,1,0-.531l.8-.8a.375.375,0,0,1,.532,0l2.275,2.292,4.782-4.783a.376.376,0,0,1,.531,0l.8.8a.375.375,0,0,1,0,.531Z" transform="translate(383.112 -728.274)" fill="#13b865"/>
  </g>
</svg>
