<svg xmlns="http://www.w3.org/2000/svg" width="20" height="20" viewBox="0 0 20 20">
  <g id="Group_1330" data-name="Group 1330" transform="translate(-1306 -520.387)">
    <g id="Group_1290" data-name="Group 1290" transform="translate(1306 520.387)">
      <rect id="Rectangle_1566" data-name="Rectangle 1566" width="20" height="20" rx="10" fill="#fff"/>
    </g>
    <path id="Path_507" data-name="Path 507" d="M854.251,1257.522l-1.3,1.294a29.878,29.878,0,0,0-2.2-2.2,30.326,30.326,0,0,0-2.2,2.2l-1.3-1.294a25.259,25.259,0,0,0,2.2-2.2,24.977,24.977,0,0,0-2.2-2.205l1.3-1.3s2.069,2.2,2.2,2.2,2.2-2.2,2.2-2.2l1.3,1.3a30.037,30.037,0,0,0-2.2,2.205A31.034,31.034,0,0,0,854.251,1257.522Z" transform="translate(465.036 -724.794)" fill="#e61f32"/>
  </g>
</svg>
