<svg xmlns="http://www.w3.org/2000/svg" width="15.12" height="17.711" viewBox="0 0 15.12 17.711">
  <g id="Group_1344" data-name="Group 1344" transform="translate(-14.4 -8.3)">
    <path id="Path_562" data-name="Path 562" d="M24.849,34.5a.849.849,0,0,0-.849.849v8.325a2.973,2.973,0,0,0,2.973,2.973h5.1a2.973,2.973,0,0,0,2.973-2.973V35.349a.849.849,0,0,0-1.7,0v8.325a1.274,1.274,0,0,1-1.274,1.274h-5.1A1.274,1.274,0,0,1,25.7,43.674V35.349A.849.849,0,0,0,24.849,34.5Z" transform="translate(-7.561 -20.636)" fill="#d93025"/>
    <path id="Path_563" data-name="Path 563" d="M28.671,10.551H25V10a1.7,1.7,0,0,0-1.7-1.7H20.622a1.7,1.7,0,0,0-1.7,1.7v.552H15.249a.849.849,0,0,0,0,1.7H28.671a.849.849,0,1,0,0-1.7Zm-8.048,0V10H23.3v.552Z" transform="translate(0 0)" fill="#d93025"/>
    <path id="Path_564" data-name="Path 564" d="M39.7,42.612V35.349a.849.849,0,0,0-1.7,0v7.263a.849.849,0,1,0,1.7,0Z" transform="translate(-18.588 -20.636)" fill="#d93025"/>
    <path id="Path_565" data-name="Path 565" d="M55.7,42.612V35.349a.849.849,0,0,0-1.7,0v7.263a.849.849,0,1,0,1.7,0Z" transform="translate(-31.19 -20.636)" fill="#d93025"/>
  </g>
</svg>
