<svg xmlns="http://www.w3.org/2000/svg" width="65.5" height="64.7" viewBox="0 0 65.5 64.7">
  <g id="Group_1581" data-name="Group 1581" transform="translate(0.2 -0.2)">
    <path id="Path_793" data-name="Path 793" d="M65.3,41.2V7.1H33.4V5.3a1.774,1.774,0,0,0-1.7-1.8H16.8a.9.9,0,0,1,0-1.8h8.6V.2H16.8a2.433,2.433,0,0,0-2.4,2.4A2.433,2.433,0,0,0,16.8,5H31.7a.319.319,0,0,1,.3.3V7.1H-.2V41.2H3.2V46c0,.5-.4,5.4.2,7.7a12.314,12.314,0,0,0,1.7,4.2l.3.6c.3.5.5,3.7.5,6.4H7.4c0-1.4-.1-6-.7-7.1a2.092,2.092,0,0,0-.4-.6,10.928,10.928,0,0,1-1.5-3.8c-.5-2.2-.1-7.2-.1-7.3h0V39.2a1.367,1.367,0,0,1,1.4-1.4,1.367,1.367,0,0,1,1.4,1.4v6.9H9V36.5a1.4,1.4,0,1,1,2.8,0v9.6h1.5V34.7a1.4,1.4,0,1,1,2.8,0V46h1.5V36.3a1.4,1.4,0,0,1,2.8,0V48.7h1.5V45.4a1.4,1.4,0,1,1,2.8,0v5.7a5.068,5.068,0,0,1-2.1,4.1,5.068,5.068,0,0,0-2.1,4.1v5.4H22V59.3a3.8,3.8,0,0,1,1.5-2.9,6.491,6.491,0,0,0,2.8-5.1h0v-6a2.9,2.9,0,0,0-2.9-2.9,2.3,2.3,0,0,0-1.4.4V41.1H44.1V43a3.255,3.255,0,0,0-1.4-.4,2.9,2.9,0,0,0-2.9,2.9v6h0a6.647,6.647,0,0,0,2.8,5.1,3.646,3.646,0,0,1,1.5,2.9v5.4h1.5V59.5a5.068,5.068,0,0,0-2.1-4.1,5.068,5.068,0,0,1-2.1-4.1V45.6a1.4,1.4,0,0,1,2.8,0v3.3h1.5v-15a1.4,1.4,0,1,1,2.8,0V45H50V38.2a1.4,1.4,0,1,1,2.8,0v6.6h1.5V39.1a1.4,1.4,0,0,1,2.8,0v7h1.5V41a1.4,1.4,0,0,1,2.8,0v5.1h0c0,.1.4,5.1-.1,7.3a11.855,11.855,0,0,1-1.5,3.8,2.092,2.092,0,0,1-.4.6c-.6,1.1-.7,5.7-.7,7.1h1.5a28.694,28.694,0,0,1,.5-6.4l.3-.6a12.314,12.314,0,0,0,1.7-4.2c.5-2.3.2-7.2.2-7.7V41.2Zm-5.7-3.1a3.255,3.255,0,0,0-1.4.4,2.89,2.89,0,0,0-2.8-2.3,2.352,2.352,0,0,0-1.7.6,2.825,2.825,0,0,0-2.5-1.5,2.3,2.3,0,0,0-1.4.4V33.9a2.9,2.9,0,1,0-5.8,0v5.9H21.7V36.5a2.9,2.9,0,0,0-2.9-2.9,3.313,3.313,0,0,0-1.5.4,2.9,2.9,0,0,0-5.6.1,2.41,2.41,0,0,0-1.5-.4,2.9,2.9,0,0,0-2.9,2.9v.2A1.9,1.9,0,0,0,6,36.3a2.9,2.9,0,0,0-2.9,2.9v.5H1.3V8.6H63.8V39.7H62.2A3.076,3.076,0,0,0,59.6,38.1Z" fill="#b4bbc1"/>
    <path id="Path_794" data-name="Path 794" d="M2.8,18.4h8.6V11H2.8Zm1.5-5.9H9.9v4.4H4.3Z" fill="#b4bbc1"/>
    <path id="Path_795" data-name="Path 795" d="M12.9,18.4h8.6V11H12.9Zm1.5-5.9H20v4.4H14.4Z" fill="#b4bbc1"/>
    <path id="Path_796" data-name="Path 796" d="M31.7,11H23.1v7.4h8.6Zm-1.5,5.9H24.6V12.5h5.6Z" fill="#b4bbc1"/>
    <path id="Path_797" data-name="Path 797" d="M33.3,18.4h8.6V11H33.3Zm1.5-5.9h5.6v4.4H34.8Z" fill="#b4bbc1"/>
    <path id="Path_798" data-name="Path 798" d="M31.7,20.9H23.1v7.4h8.6Zm-1.5,5.9H24.6V22.4h5.6Z" fill="#b4bbc1"/>
    <path id="Path_799" data-name="Path 799" d="M33.3,28.3h8.6V20.9H33.3Zm1.5-5.9h5.6v4.4H34.8Z" fill="#b4bbc1"/>
    <path id="Path_800" data-name="Path 800" d="M43.4,18.4H52V11H43.4Zm1.5-5.9h5.6v4.4H44.9Z" fill="#b4bbc1"/>
    <path id="Path_801" data-name="Path 801" d="M43.4,28.3H52V20.9H43.4Zm1.5-5.9h5.6v4.4H44.9Z" fill="#b4bbc1"/>
    <path id="Path_802" data-name="Path 802" d="M62.2,11H53.6v7.4h8.6Zm-1.5,5.9H55.1V12.5h5.6Z" fill="#b4bbc1"/>
    <path id="Path_803" data-name="Path 803" d="M2.8,28.3h8.6V20.9H2.8Zm1.5-5.9H9.9v4.4H4.3Z" fill="#b4bbc1"/>
    <path id="Path_804" data-name="Path 804" d="M12.9,28.3h8.6V20.9H12.9Zm1.5-5.9H20v4.4H14.4Z" fill="#b4bbc1"/>
    <path id="Path_805" data-name="Path 805" d="M62.2,20.9H53.6v7.4h8.6Zm-1.5,5.9H55.1V22.4h5.6Z" fill="#b4bbc1"/>
    <path id="Path_806" data-name="Path 806" d="M23.1,38.2H41.9V32.3H23.1Zm1.5-4.4H40.4v2.9H24.6Z" fill="#b4bbc1"/>
  </g>
</svg>
