<svg xmlns="http://www.w3.org/2000/svg" width="20.954" height="23.409" viewBox="0 0 20.954 23.409">
  <g id="Group_1603" data-name="Group 1603" transform="translate(-4202 -1588.993)">
    <path id="Path_811" data-name="Path 811" d="M4221.646,1599.6a1.3,1.3,0,0,1,1.309,1.3h0v6.5a1.3,1.3,0,0,1-1.309,1.3H4203.31a1.3,1.3,0,0,1-1.31-1.3v-6.5a1.31,1.31,0,0,1,2.619,0v5.2h15.715v-5.2a1.3,1.3,0,0,1,1.309-1.3Z" transform="translate(0 3.704)" fill="#3275d3" fill-rule="evenodd"/>
    <path id="Path_812" data-name="Path 812" d="M4215.776,1596.409l-3-2.981v11.163a1.31,1.31,0,1,1-2.62,0v-11.163l-3,2.981a1.313,1.313,0,0,1-1.851,0,1.292,1.292,0,0,1-.013-1.826l.013-.012,5.238-5.2a1.322,1.322,0,0,1,1.854,0l5.231,5.2a1.293,1.293,0,0,1,.012,1.827l-.012.011A1.313,1.313,0,0,1,4215.776,1596.409Z" transform="translate(1.019 0)" fill="#3275d3" fill-rule="evenodd"/>
  </g>
</svg>
